<svg width="245" height="235" viewBox="0 0 245 235" fill="none" xmlns="http://www.w3.org/2000/svg">
<g filter="url(#filter0_d_25_7)">
<path d="M72.7568 4H232.101V214.635H72.7568V4Z" fill="#212121"/>
<path d="M157 189C157 191.209 155.209 193 153 193C150.791 193 149 191.209 149 189C149 186.791 150.791 185 153 185C155.209 185 157 186.791 157 189Z" fill="#212121"/>
<path d="M157 131C157 133.209 155.209 135 153 135C150.791 135 149 133.209 149 131C149 128.791 150.791 127 153 127C155.209 127 157 128.791 157 131Z" fill="#212121"/>
<path d="M157 77C157 79.2091 155.209 81 153 81C150.791 81 149 79.2091 149 77C149 74.7909 150.791 73 153 73C155.209 73 157 74.7909 157 77Z" fill="#212121"/>
<path d="M156 27C156 29.2091 154.209 31 152 31C149.791 31 148 29.2091 148 27C148 24.7909 149.791 23 152 23C154.209 23 156 24.7909 156 27Z" fill="#212121"/>
<path d="M231.601 102.795V159.925H73.2568V102.795H231.601ZM73.2568 160.925H231.601V214.135H73.2568V160.925ZM231.601 101.795H73.2568V52.8714H231.601V101.795ZM231.601 51.8714H73.2568V4.5H231.601V51.8714ZM156.5 189C156.5 190.933 154.933 192.5 153 192.5C151.067 192.5 149.5 190.933 149.5 189C149.5 187.067 151.067 185.5 153 185.5C154.933 185.5 156.5 187.067 156.5 189ZM153 193.5C155.485 193.5 157.5 191.485 157.5 189C157.5 186.515 155.485 184.5 153 184.5C150.515 184.5 148.5 186.515 148.5 189C148.5 191.485 150.515 193.5 153 193.5ZM156.5 131C156.5 132.933 154.933 134.5 153 134.5C151.067 134.5 149.5 132.933 149.5 131C149.5 129.067 151.067 127.5 153 127.5C154.933 127.5 156.5 129.067 156.5 131ZM153 135.5C155.485 135.5 157.5 133.485 157.5 131C157.5 128.515 155.485 126.5 153 126.5C150.515 126.5 148.5 128.515 148.5 131C148.5 133.485 150.515 135.5 153 135.5ZM156.5 77C156.5 78.933 154.933 80.5 153 80.5C151.067 80.5 149.5 78.933 149.5 77C149.5 75.067 151.067 73.5 153 73.5C154.933 73.5 156.5 75.067 156.5 77ZM153 81.5C155.485 81.5 157.5 79.4853 157.5 77C157.5 74.5147 155.485 72.5 153 72.5C150.515 72.5 148.5 74.5147 148.5 77C148.5 79.4853 150.515 81.5 153 81.5ZM155.5 27C155.5 28.933 153.933 30.5 152 30.5C150.067 30.5 148.5 28.933 148.5 27C148.5 25.067 150.067 23.5 152 23.5C153.933 23.5 155.5 25.067 155.5 27ZM152 31.5C154.485 31.5 156.5 29.4853 156.5 27C156.5 24.5147 154.485 22.5 152 22.5C149.515 22.5 147.5 24.5147 147.5 27C147.5 29.4853 149.515 31.5 152 31.5Z" stroke="white"/>
</g>
<g filter="url(#filter1_d_25_7)">
<path d="M150.838 221.851L161.885 132H142L150.838 221.851Z" fill="#212121"/>
<path d="M150.838 221.851L161.885 132H142L150.838 221.851Z" stroke="white" stroke-linecap="round"/>
</g>
<g filter="url(#filter2_d_25_7)">
<path d="M145.669 195.855L155.243 119.997L29.3041 119.628L19.7298 195.486L145.669 195.855Z" fill="#B388FF"/>
<path d="M145.669 195.855L155.243 119.997L29.3041 119.628L19.7298 195.486L145.669 195.855Z" stroke="#B388FF" stroke-linecap="round"/>
</g>
<g filter="url(#filter3_d_25_7)">
<path d="M135.358 109.318L8.68243 109.318L17.5203 188.858H144.189L135.358 109.318Z" fill="#B388FF"/>
<path d="M135.358 109.318L8.68243 109.318L17.5203 188.858H144.189L135.358 109.318Z" stroke="#B388FF" stroke-linecap="round"/>
</g>
<g filter="url(#filter4_d_25_7)">
<path d="M150.832 222H13.8378L5 126.26L141.618 126.26L150.832 222Z" fill="#212121"/>
<path d="M150.832 222H13.8378L5 126.26L141.618 126.26L150.832 222Z" stroke="white" stroke-linecap="round"/>
</g>
<path d="M7.5 154H144.5" stroke="#B388FF" stroke-width="4"/>
<path d="M7 145H144" stroke="#B388FF" stroke-width="4"/>
<path d="M5.73291 134.511L7.98081 158.989" stroke="white"/>
<g filter="url(#filter5_i_25_7)">
<rect x="92.6742" y="92.3783" width="91.4471" height="21.1772" rx="4" fill="#7C4DFF"/>
<ellipse cx="76.3099" cy="171.312" rx="30.8032" ry="30.8032" fill="#7C4DFF"/>
<ellipse cx="153.318" cy="171.312" rx="30.8032" ry="30.8032" fill="#7C4DFF"/>
<rect x="92.6742" y="92.3783" width="14.439" height="82.7837" rx="4" fill="#7C4DFF"/>
<rect x="169.682" y="92.3783" width="14.439" height="82.7837" rx="4" fill="#7C4DFF"/>
</g>
<g filter="url(#filter6_d_25_7)">
<path d="M70.2792 13.8892C70.2112 13.5692 70.4155 13.2545 70.7356 13.1865L80.4428 11.1232C80.7628 11.0552 81.0774 11.2595 81.1455 11.5795L81.977 15.4914C82.045 15.8115 81.8407 16.1261 81.5206 16.1941L71.8134 18.2574C71.4934 18.3255 71.1787 18.1212 71.1107 17.8011L70.2792 13.8892Z" fill="#B388FF"/>
<path d="M77.5246 31.2406C78.3792 35.2611 75.8127 39.2132 71.7922 40.0678C67.7717 40.9223 63.8197 38.3559 62.9651 34.3354C62.1105 30.3149 64.677 26.3628 68.6975 25.5082C72.718 24.6537 76.67 27.2201 77.5246 31.2406Z" fill="#B388FF"/>
<path d="M70.2703 13.8911C70.2023 13.5711 70.4066 13.2564 70.7267 13.1884L72.98 12.7094C73.3001 12.6414 73.6147 12.8457 73.6827 13.1658L77.5949 31.5711C77.6629 31.8911 77.4586 32.2058 77.1385 32.2738L74.8852 32.7527C74.5651 32.8208 74.2505 32.6165 74.1825 32.2964L70.2703 13.8911Z" fill="#B388FF"/>
</g>
<g filter="url(#filter7_d_25_7)">
<path d="M205.857 20.0879C205.958 19.7767 206.292 19.6064 206.604 19.7075L216.042 22.7742C216.353 22.8753 216.523 23.2096 216.422 23.5208L215.187 27.3243C215.085 27.6355 214.751 27.8058 214.44 27.7047L205.002 24.638C204.69 24.5369 204.52 24.2026 204.621 23.8914L205.857 20.0879Z" fill="#B388FF"/>
<path d="M203.456 38.7374C202.186 42.6465 197.987 44.7858 194.078 43.5157C190.169 42.2455 188.03 38.0469 189.3 34.1377C190.57 30.2286 194.769 28.0893 198.678 29.3594C202.587 30.6296 204.726 34.8282 203.456 38.7374Z" fill="#B388FF"/>
<path d="M205.848 20.0851C205.95 19.7739 206.284 19.6036 206.595 19.7047L208.786 20.4166C209.097 20.5177 209.267 20.8519 209.166 21.1631L203.352 39.0587C203.251 39.3699 202.916 39.5402 202.605 39.4391L200.414 38.7272C200.103 38.6261 199.933 38.2918 200.034 37.9806L205.848 20.0851Z" fill="#B388FF"/>
</g>
<g filter="url(#filter8_d_25_7)">
<path d="M32.5512 62.5415C32.5 62.2183 32.7205 61.9149 33.0437 61.8637L53.696 58.5927C54.0192 58.5415 54.3226 58.762 54.3738 59.0852L54.9889 62.9684C55.0401 63.2916 54.8196 63.5951 54.4964 63.6463L33.8441 66.9173C33.5209 66.9685 33.2175 66.748 33.1663 66.4248L32.5512 62.5415Z" fill="#B388FF"/>
<path d="M38.8876 80.2469C39.5306 84.3066 36.7608 88.119 32.701 88.7619C28.6413 89.4049 24.829 86.6351 24.186 82.5754C23.543 78.5157 26.3128 74.7034 30.3726 74.0604C34.4323 73.4174 38.2446 76.1872 38.8876 80.2469Z" fill="#B388FF"/>
<path d="M57.2645 77.3363C57.9075 81.396 55.1377 85.2083 51.078 85.8513C47.0183 86.4943 43.206 83.7245 42.563 79.6648C41.92 75.6051 44.6898 71.7928 48.7495 71.1498C52.8092 70.5068 56.6215 73.2766 57.2645 77.3363Z" fill="#B388FF"/>
<path d="M32.5512 62.5415C32.5 62.2183 32.7205 61.9149 33.0437 61.8637L35.319 61.5033C35.6422 61.4521 35.9457 61.6726 35.9969 61.9958L38.9404 80.5806C38.9916 80.9038 38.7711 81.2073 38.4479 81.2585L36.1726 81.6188C35.8494 81.67 35.5459 81.4495 35.4948 81.1263L32.5512 62.5415Z" fill="#B388FF"/>
<path d="M50.9282 59.6309C50.877 59.3077 51.0975 59.0042 51.4207 58.953L53.696 58.5927C54.0192 58.5415 54.3226 58.762 54.3738 59.0852L57.3174 77.67C57.3686 77.9932 57.1481 78.2967 56.8249 78.3478L54.5496 78.7082C54.2264 78.7594 53.9229 78.5389 53.8717 78.2157L50.9282 59.6309Z" fill="#B388FF"/>
</g>
<g filter="url(#filter9_d_25_7)">
<path d="M126.311 40.3679C126.362 40.0448 126.666 39.8243 126.989 39.8754L147.641 43.1464C147.964 43.1976 148.185 43.5011 148.133 43.8243L147.518 47.7076C147.467 48.0308 147.164 48.2513 146.841 48.2001L126.188 44.9291C125.865 44.8779 125.645 44.5744 125.696 44.2512L126.311 40.3679Z" fill="#B388FF"/>
<path d="M126.866 59.1648C126.223 63.2245 122.411 65.9943 118.351 65.3513C114.291 64.7083 111.521 60.896 112.164 56.8363C112.807 52.7766 116.62 50.0068 120.679 50.6498C124.739 51.2928 127.509 55.1051 126.866 59.1648Z" fill="#B388FF"/>
<path d="M145.243 62.0754C144.6 66.1352 140.787 68.905 136.728 68.262C132.668 67.619 129.898 63.8067 130.541 59.747C131.184 55.6872 134.997 52.9174 139.056 53.5604C143.116 54.2034 145.886 58.0157 145.243 62.0754Z" fill="#B388FF"/>
<path d="M126.311 40.3679C126.362 40.0448 126.666 39.8243 126.989 39.8754L129.264 40.2358C129.587 40.287 129.808 40.5905 129.757 40.9137L126.813 59.4985C126.762 59.8217 126.458 60.0422 126.135 59.991L123.86 59.6306C123.537 59.5794 123.316 59.2759 123.367 58.9527L126.311 40.3679Z" fill="#B388FF"/>
<path d="M144.688 43.2786C144.739 42.9554 145.042 42.7349 145.366 42.7861L147.641 43.1464C147.964 43.1976 148.185 43.5011 148.133 43.8243L145.19 62.4091C145.139 62.7323 144.835 62.9528 144.512 62.9016L142.237 62.5412C141.914 62.4901 141.693 62.1866 141.744 61.8634L144.688 43.2786Z" fill="#B388FF"/>
</g>
<g filter="url(#filter10_d_25_7)">
<path d="M210.1 147.185C210.072 146.859 210.313 146.571 210.639 146.543L231.469 144.72C231.795 144.692 232.083 144.933 232.111 145.259L232.454 149.176C232.482 149.502 232.241 149.789 231.915 149.818L211.085 151.64C210.759 151.669 210.472 151.427 210.443 151.101L210.1 147.185Z" fill="#B388FF"/>
<path d="M215.186 165.289C215.545 169.384 212.516 172.994 208.421 173.352C204.326 173.71 200.716 170.681 200.358 166.586C200 162.492 203.029 158.882 207.124 158.524C211.218 158.165 214.828 161.194 215.186 165.289Z" fill="#B388FF"/>
<path d="M233.722 163.667C234.08 167.762 231.051 171.372 226.956 171.73C222.861 172.088 219.252 169.059 218.893 164.965C218.535 160.87 221.564 157.26 225.659 156.902C229.753 156.544 233.363 159.573 233.722 163.667Z" fill="#B388FF"/>
<path d="M210.1 147.185C210.072 146.859 210.313 146.571 210.639 146.543L212.934 146.342C213.26 146.314 213.547 146.555 213.576 146.881L215.216 165.626C215.244 165.952 215.003 166.239 214.677 166.267L212.382 166.468C212.056 166.497 211.769 166.256 211.74 165.93L210.1 147.185Z" fill="#B388FF"/>
<path d="M228.636 145.563C228.607 145.237 228.848 144.95 229.174 144.921L231.469 144.72C231.795 144.692 232.083 144.933 232.111 145.259L233.751 164.004C233.78 164.33 233.538 164.617 233.212 164.646L230.918 164.847C230.592 164.875 230.304 164.634 230.276 164.308L228.636 145.563Z" fill="#B388FF"/>
</g>
<defs>
<filter id="filter0_d_25_7" x="68.7568" y="0" width="175.344" height="226.635" filterUnits="userSpaceOnUse" color-interpolation-filters="sRGB">
<feFlood flood-opacity="0" result="BackgroundImageFix"/>
<feColorMatrix in="SourceAlpha" type="matrix" values="0 0 0 0 0 0 0 0 0 0 0 0 0 0 0 0 0 0 127 0" result="hardAlpha"/>
<feOffset dx="4" dy="4"/>
<feGaussianBlur stdDeviation="4"/>
<feComposite in2="hardAlpha" operator="out"/>
<feColorMatrix type="matrix" values="0 0 0 0 0 0 0 0 0 0 0 0 0 0 0 0 0 0 0.25 0"/>
<feBlend mode="normal" in2="BackgroundImageFix" result="effect1_dropShadow_25_7"/>
<feBlend mode="normal" in="SourceGraphic" in2="effect1_dropShadow_25_7" result="shape"/>
</filter>
<filter id="filter1_d_25_7" x="137.448" y="127.5" width="37.002" height="106.412" filterUnits="userSpaceOnUse" color-interpolation-filters="sRGB">
<feFlood flood-opacity="0" result="BackgroundImageFix"/>
<feColorMatrix in="SourceAlpha" type="matrix" values="0 0 0 0 0 0 0 0 0 0 0 0 0 0 0 0 0 0 127 0" result="hardAlpha"/>
<feOffset dx="4" dy="4"/>
<feGaussianBlur stdDeviation="4"/>
<feComposite in2="hardAlpha" operator="out"/>
<feColorMatrix type="matrix" values="0 0 0 0 0 0 0 0 0 0 0 0 0 0 0 0 0 0 0.25 0"/>
<feBlend mode="normal" in2="BackgroundImageFix" result="effect1_dropShadow_25_7"/>
<feBlend mode="normal" in="SourceGraphic" in2="effect1_dropShadow_25_7" result="shape"/>
</filter>
<filter id="filter2_d_25_7" x="15.1629" y="115.127" width="152.647" height="93.2289" filterUnits="userSpaceOnUse" color-interpolation-filters="sRGB">
<feFlood flood-opacity="0" result="BackgroundImageFix"/>
<feColorMatrix in="SourceAlpha" type="matrix" values="0 0 0 0 0 0 0 0 0 0 0 0 0 0 0 0 0 0 127 0" result="hardAlpha"/>
<feOffset dx="4" dy="4"/>
<feGaussianBlur stdDeviation="4"/>
<feComposite in2="hardAlpha" operator="out"/>
<feColorMatrix type="matrix" values="0 0 0 0 0 0 0 0 0 0 0 0 0 0 0 0 0 0 0.25 0"/>
<feBlend mode="normal" in2="BackgroundImageFix" result="effect1_dropShadow_25_7"/>
<feBlend mode="normal" in="SourceGraphic" in2="effect1_dropShadow_25_7" result="shape"/>
</filter>
<filter id="filter3_d_25_7" x="4.12378" y="104.818" width="152.623" height="96.5404" filterUnits="userSpaceOnUse" color-interpolation-filters="sRGB">
<feFlood flood-opacity="0" result="BackgroundImageFix"/>
<feColorMatrix in="SourceAlpha" type="matrix" values="0 0 0 0 0 0 0 0 0 0 0 0 0 0 0 0 0 0 127 0" result="hardAlpha"/>
<feOffset dx="4" dy="4"/>
<feGaussianBlur stdDeviation="4"/>
<feComposite in2="hardAlpha" operator="out"/>
<feColorMatrix type="matrix" values="0 0 0 0 0 0 0 0 0 0 0 0 0 0 0 0 0 0 0.25 0"/>
<feBlend mode="normal" in2="BackgroundImageFix" result="effect1_dropShadow_25_7"/>
<feBlend mode="normal" in="SourceGraphic" in2="effect1_dropShadow_25_7" result="shape"/>
</filter>
<filter id="filter4_d_25_7" x="0.451721" y="121.76" width="162.931" height="112.74" filterUnits="userSpaceOnUse" color-interpolation-filters="sRGB">
<feFlood flood-opacity="0" result="BackgroundImageFix"/>
<feColorMatrix in="SourceAlpha" type="matrix" values="0 0 0 0 0 0 0 0 0 0 0 0 0 0 0 0 0 0 127 0" result="hardAlpha"/>
<feOffset dx="4" dy="4"/>
<feGaussianBlur stdDeviation="4"/>
<feComposite in2="hardAlpha" operator="out"/>
<feColorMatrix type="matrix" values="0 0 0 0 0 0 0 0 0 0 0 0 0 0 0 0 0 0 0.25 0"/>
<feBlend mode="normal" in2="BackgroundImageFix" result="effect1_dropShadow_25_7"/>
<feBlend mode="normal" in="SourceGraphic" in2="effect1_dropShadow_25_7" result="shape"/>
</filter>
<filter id="filter5_i_25_7" x="45.5067" y="92.3783" width="142.615" height="113.736" filterUnits="userSpaceOnUse" color-interpolation-filters="sRGB">
<feFlood flood-opacity="0" result="BackgroundImageFix"/>
<feBlend mode="normal" in="SourceGraphic" in2="BackgroundImageFix" result="shape"/>
<feColorMatrix in="SourceAlpha" type="matrix" values="0 0 0 0 0 0 0 0 0 0 0 0 0 0 0 0 0 0 127 0" result="hardAlpha"/>
<feOffset dx="4" dy="4"/>
<feGaussianBlur stdDeviation="2"/>
<feComposite in2="hardAlpha" operator="arithmetic" k2="-1" k3="1"/>
<feColorMatrix type="matrix" values="0 0 0 0 0 0 0 0 0 0 0 0 0 0 0 0 0 0 0.25 0"/>
<feBlend mode="normal" in2="shape" result="effect1_innerShadow_25_7"/>
</filter>
<filter id="filter6_d_25_7" x="59.801" y="8.11012" width="27.1891" height="37.1218" filterUnits="userSpaceOnUse" color-interpolation-filters="sRGB">
<feFlood flood-opacity="0" result="BackgroundImageFix"/>
<feColorMatrix in="SourceAlpha" type="matrix" values="0 0 0 0 0 0 0 0 0 0 0 0 0 0 0 0 0 0 127 0" result="hardAlpha"/>
<feOffset dx="1" dy="1"/>
<feGaussianBlur stdDeviation="2"/>
<feComposite in2="hardAlpha" operator="out"/>
<feColorMatrix type="matrix" values="0 0 0 0 0 0 0 0 0 0 0 0 0 0 0 0 0 0 0.25 0"/>
<feBlend mode="normal" in2="BackgroundImageFix" result="effect1_dropShadow_25_7"/>
<feBlend mode="normal" in="SourceGraphic" in2="effect1_dropShadow_25_7" result="shape"/>
</filter>
<filter id="filter7_d_25_7" x="185.934" y="16.6755" width="35.518" height="32.2064" filterUnits="userSpaceOnUse" color-interpolation-filters="sRGB">
<feFlood flood-opacity="0" result="BackgroundImageFix"/>
<feColorMatrix in="SourceAlpha" type="matrix" values="0 0 0 0 0 0 0 0 0 0 0 0 0 0 0 0 0 0 127 0" result="hardAlpha"/>
<feOffset dx="1" dy="1"/>
<feGaussianBlur stdDeviation="2"/>
<feComposite in2="hardAlpha" operator="out"/>
<feColorMatrix type="matrix" values="0 0 0 0 0 0 0 0 0 0 0 0 0 0 0 0 0 0 0.25 0"/>
<feBlend mode="normal" in2="BackgroundImageFix" result="effect1_dropShadow_25_7"/>
<feBlend mode="normal" in="SourceGraphic" in2="effect1_dropShadow_25_7" result="shape"/>
</filter>
<filter id="filter8_d_25_7" x="21.0933" y="55.5853" width="41.2639" height="38.2694" filterUnits="userSpaceOnUse" color-interpolation-filters="sRGB">
<feFlood flood-opacity="0" result="BackgroundImageFix"/>
<feColorMatrix in="SourceAlpha" type="matrix" values="0 0 0 0 0 0 0 0 0 0 0 0 0 0 0 0 0 0 127 0" result="hardAlpha"/>
<feOffset dx="1" dy="1"/>
<feGaussianBlur stdDeviation="2"/>
<feComposite in2="hardAlpha" operator="out"/>
<feColorMatrix type="matrix" values="0 0 0 0 0 0 0 0 0 0 0 0 0 0 0 0 0 0 0.25 0"/>
<feBlend mode="normal" in2="BackgroundImageFix" result="effect1_dropShadow_25_7"/>
<feBlend mode="normal" in="SourceGraphic" in2="effect1_dropShadow_25_7" result="shape"/>
</filter>
<filter id="filter9_d_25_7" x="109.072" y="36.8681" width="44.0693" height="36.4866" filterUnits="userSpaceOnUse" color-interpolation-filters="sRGB">
<feFlood flood-opacity="0" result="BackgroundImageFix"/>
<feColorMatrix in="SourceAlpha" type="matrix" values="0 0 0 0 0 0 0 0 0 0 0 0 0 0 0 0 0 0 127 0" result="hardAlpha"/>
<feOffset dx="1" dy="1"/>
<feGaussianBlur stdDeviation="2"/>
<feComposite in2="hardAlpha" operator="out"/>
<feColorMatrix type="matrix" values="0 0 0 0 0 0 0 0 0 0 0 0 0 0 0 0 0 0 0.25 0"/>
<feBlend mode="normal" in2="BackgroundImageFix" result="effect1_dropShadow_25_7"/>
<feBlend mode="normal" in="SourceGraphic" in2="effect1_dropShadow_25_7" result="shape"/>
</filter>
<filter id="filter10_d_25_7" x="197.329" y="141.718" width="41.424" height="36.6623" filterUnits="userSpaceOnUse" color-interpolation-filters="sRGB">
<feFlood flood-opacity="0" result="BackgroundImageFix"/>
<feColorMatrix in="SourceAlpha" type="matrix" values="0 0 0 0 0 0 0 0 0 0 0 0 0 0 0 0 0 0 127 0" result="hardAlpha"/>
<feOffset dx="1" dy="1"/>
<feGaussianBlur stdDeviation="2"/>
<feComposite in2="hardAlpha" operator="out"/>
<feColorMatrix type="matrix" values="0 0 0 0 0 0 0 0 0 0 0 0 0 0 0 0 0 0 0.25 0"/>
<feBlend mode="normal" in2="BackgroundImageFix" result="effect1_dropShadow_25_7"/>
<feBlend mode="normal" in="SourceGraphic" in2="effect1_dropShadow_25_7" result="shape"/>
</filter>
</defs>
</svg>
