<svg width="275" height="223" viewBox="0 0 275 223" fill="none" xmlns="http://www.w3.org/2000/svg">
<g filter="url(#filter0_d_26_88)">
<path d="M97.0949 5L196.959 5.17272V186.728L59.525 186.901V42.4384L97.0909 5.00399L97.0949 5Z" fill="#212121"/>
<path d="M196.959 5.17272H197.459C197.459 4.89691 197.236 4.67319 196.96 4.67272L196.959 5.17272ZM97.0949 5L97.0957 4.5C96.9631 4.49977 96.8359 4.55223 96.7419 4.64583L97.0949 5ZM196.959 186.728L196.96 187.228C197.236 187.228 197.459 187.004 197.459 186.728H196.959ZM59.525 186.901H59.025C59.025 187.033 59.0778 187.161 59.1717 187.254C59.2656 187.348 59.3929 187.401 59.5257 187.401L59.525 186.901ZM59.525 42.4384L59.1721 42.0843C59.0779 42.1781 59.025 42.3055 59.025 42.4384H59.525ZM97.0909 42.5658L97.0892 43.0658L97.5909 43.0675V42.5658H97.0909ZM196.96 4.67272L97.0957 4.5L97.094 5.5L196.958 5.67272L196.96 4.67272ZM197.459 186.728V5.17272H196.459V186.728H197.459ZM59.5257 187.401L196.96 187.228L196.959 186.228L59.5244 186.401L59.5257 187.401ZM59.025 42.4384V186.901H60.025V42.4384H59.025ZM59.878 42.7926L97.4438 5.35816L96.7379 4.64982L59.1721 42.0843L59.878 42.7926ZM97.4438 5.35816L97.4478 5.35417L96.7419 4.64583L96.7379 4.64982L97.4438 5.35816ZM96.5909 5V5.00399H97.5909V5H96.5909ZM96.5909 5.00399V42.5658H97.5909V5.00399H96.5909ZM59.5233 42.9384L97.0892 43.0658L97.0926 42.0658L59.5267 41.9384L59.5233 42.9384Z" fill="white"/>
</g>
<g filter="url(#filter1_d_26_88)">
<path d="M107.656 14.6008L207.52 14.7735V196.329L70.0858 196.501V52.0392L107.652 14.6048L107.656 14.6008Z" fill="#212121"/>
<path d="M207.52 14.7735H208.02C208.02 14.4977 207.797 14.274 207.521 14.2735L207.52 14.7735ZM107.656 14.6008L107.657 14.1008C107.524 14.1006 107.397 14.153 107.303 14.2466L107.656 14.6008ZM207.52 196.329L207.521 196.829C207.797 196.828 208.02 196.605 208.02 196.329H207.52ZM70.0858 196.501H69.5858C69.5858 196.634 69.6386 196.761 69.7325 196.855C69.8264 196.949 69.9537 197.002 70.0864 197.001L70.0858 196.501ZM70.0858 52.0392L69.7329 51.6851C69.6387 51.7789 69.5858 51.9063 69.5858 52.0392H70.0858ZM107.652 52.1666L107.65 52.6666L108.152 52.6683V52.1666H107.652ZM207.521 14.2735L107.657 14.1008L107.655 15.1008L207.519 15.2735L207.521 14.2735ZM208.02 196.329V14.7735H207.02V196.329H208.02ZM70.0864 197.001L207.521 196.829L207.519 195.829L70.0852 196.001L70.0864 197.001ZM69.5858 52.0392V196.501H70.5858V52.0392H69.5858ZM70.4387 52.3934L108.005 14.959L107.299 14.2506L69.7329 51.6851L70.4387 52.3934ZM108.005 14.959L108.009 14.955L107.303 14.2466L107.299 14.2506L108.005 14.959ZM107.152 14.6008V14.6048H108.152V14.6008H107.152ZM107.152 14.6048V52.1666H108.152V14.6048H107.152ZM70.0841 52.5392L107.65 52.6666L107.653 51.6666L70.0875 51.5392L70.0841 52.5392Z" fill="white"/>
</g>
<g filter="url(#filter2_d_26_88)">
<path d="M117.19 24.3957L217.054 24.5684V206.124L79.6198 206.296V61.8341L117.186 24.3997L117.19 24.3957Z" fill="#212121"/>
<path d="M217.054 24.5684H217.554C217.554 24.2926 217.331 24.0689 217.055 24.0684L217.054 24.5684ZM117.19 24.3957L117.19 23.8957C117.058 23.8955 116.931 23.9479 116.837 24.0415L117.19 24.3957ZM217.054 206.124L217.055 206.624C217.33 206.623 217.554 206.399 217.554 206.124H217.054ZM79.6198 206.296H79.1198C79.1198 206.429 79.1725 206.556 79.2664 206.65C79.3603 206.744 79.4877 206.796 79.6204 206.796L79.6198 206.296ZM79.6198 61.8341L79.2668 61.4799C79.1727 61.5738 79.1198 61.7012 79.1198 61.8341H79.6198ZM117.186 61.9615L117.184 62.4615L117.686 62.4632V61.9615H117.186ZM217.055 24.0684L117.19 23.8957L117.189 24.8957L217.053 25.0684L217.055 24.0684ZM217.554 206.124V24.5684H216.554V206.124H217.554ZM79.6204 206.796L217.055 206.624L217.053 205.624L79.6191 205.796L79.6204 206.796ZM79.1198 61.8341V206.296H80.1198V61.8341H79.1198ZM79.9727 62.1883L117.539 24.7539L116.833 24.0455L79.2668 61.4799L79.9727 62.1883ZM117.539 24.7539L117.543 24.7499L116.837 24.0415L116.833 24.0455L117.539 24.7539ZM116.686 24.3957V24.3997H117.686V24.3957H116.686ZM116.686 24.3997V61.9615H117.686V24.3997H116.686ZM79.6181 62.3341L117.184 62.4615L117.187 61.4615L79.6214 61.3341L79.6181 62.3341Z" fill="white"/>
</g>
<rect x="135.603" y="92.1099" width="37.3129" height="8.64092" rx="4" fill="#B388FF"/>
<ellipse cx="128.926" cy="124.317" rx="12.5685" ry="12.5686" fill="#B388FF"/>
<ellipse cx="160.347" cy="124.317" rx="12.5685" ry="12.5686" fill="#B388FF"/>
<rect x="135.603" y="92.1099" width="5.89151" height="33.7781" rx="2.94575" fill="#B388FF"/>
<rect x="167.025" y="92.1099" width="5.89151" height="33.7781" rx="2.94575" fill="#B388FF"/>
<g filter="url(#filter3_i_26_88)">
<rect x="177.945" y="162.91" width="22.5344" height="84.9804" rx="11.2672" transform="rotate(-45 177.945 162.91)" fill="#7C4DFF"/>
</g>
<g filter="url(#filter4_i_26_88)">
<path d="M205.735 115.348C205.735 148.163 179.133 174.765 146.317 174.765C113.502 174.765 86.9 148.163 86.9 115.348C86.9 82.5322 113.502 55.93 146.317 55.93C179.133 55.93 205.735 82.5322 205.735 115.348Z" stroke="#7C4DFF" stroke-width="21.2"/>
</g>
<g filter="url(#filter5_d_26_88)">
<path d="M251.634 49.7858C251.744 49.4466 252.109 49.261 252.448 49.3712L262.736 52.7139C263.075 52.8241 263.261 53.1884 263.15 53.5276L261.803 57.6735C261.693 58.0127 261.329 58.1983 260.99 58.0881L250.702 54.7454C250.363 54.6352 250.177 54.2709 250.287 53.9316L251.634 49.7858Z" fill="#B388FF"/>
<path d="M249.017 70.1137C247.633 74.3747 243.056 76.7066 238.795 75.3221C234.534 73.9376 232.202 69.3611 233.587 65.1001C234.971 60.8391 239.548 58.5073 243.809 59.8918C248.07 61.2762 250.402 65.8528 249.017 70.1137Z" fill="#B388FF"/>
<path d="M251.625 49.7828C251.735 49.4435 252.099 49.2579 252.439 49.3681L254.827 50.1441C255.166 50.2543 255.351 50.6186 255.241 50.9578L248.903 70.4639C248.793 70.8032 248.429 70.9888 248.09 70.8786L245.701 70.1026C245.362 69.9924 245.177 69.6281 245.287 69.2889L251.625 49.7828Z" fill="#B388FF"/>
</g>
<g filter="url(#filter6_d_26_88)">
<path d="M22.1044 133.499C22.0302 133.15 22.2529 132.807 22.6018 132.733L33.1827 130.484C33.5315 130.41 33.8745 130.633 33.9486 130.982L34.8549 135.246C34.9291 135.594 34.7064 135.937 34.3575 136.012L23.7767 138.261C23.4278 138.335 23.0849 138.112 23.0107 137.763L22.1044 133.499Z" fill="#B388FF"/>
<path d="M30.0019 152.412C30.9334 156.795 28.1359 161.102 23.7536 162.034C19.3712 162.965 15.0635 160.168 14.132 155.786C13.2005 151.403 15.998 147.095 20.3803 146.164C24.7627 145.232 29.0704 148.03 30.0019 152.412Z" fill="#B388FF"/>
<path d="M22.0947 133.501C22.0205 133.152 22.2433 132.809 22.5921 132.735L25.0482 132.213C25.3971 132.139 25.7401 132.362 25.8142 132.711L30.0785 152.772C30.1526 153.121 29.9299 153.464 29.581 153.538L27.1249 154.06C26.7761 154.135 26.4331 153.912 26.359 153.563L22.0947 133.501Z" fill="#B388FF"/>
</g>
<g filter="url(#filter7_d_26_88)">
<path d="M12.3699 49.7353C12.3142 49.383 12.5545 49.0522 12.9068 48.9964L35.4177 45.431C35.77 45.3752 36.1008 45.6156 36.1566 45.9679L36.827 50.2006C36.8828 50.5529 36.6425 50.8837 36.2902 50.9395L13.7792 54.5049C13.427 54.5607 13.0961 54.3204 13.0404 53.9681L12.3699 49.7353Z" fill="#B388FF"/>
<path d="M19.2766 69.0342C19.9775 73.4593 16.9584 77.6147 12.5333 78.3156C8.10817 79.0164 3.95275 75.9973 3.25189 71.5723C2.55102 67.1472 5.57011 62.9918 9.99521 62.2909C14.4203 61.59 18.5757 64.6091 19.2766 69.0342Z" fill="#B388FF"/>
<path d="M39.3075 65.8616C40.0083 70.2867 36.9892 74.4421 32.5641 75.143C28.139 75.8438 23.9836 72.8248 23.2828 68.3997C22.5819 63.9746 25.601 59.8192 30.0261 59.1183C34.4512 58.4174 38.6066 61.4365 39.3075 65.8616Z" fill="#B388FF"/>
<path d="M12.3699 49.7353C12.3142 49.383 12.5545 49.0522 12.9068 48.9964L15.3869 48.6036C15.7391 48.5478 16.0699 48.7882 16.1257 49.1404L19.3342 69.3979C19.39 69.7502 19.1496 70.081 18.7974 70.1368L16.3173 70.5296C15.965 70.5854 15.6342 70.345 15.5784 69.9927L12.3699 49.7353Z" fill="#B388FF"/>
<path d="M32.4008 46.5627C32.345 46.2104 32.5854 45.8796 32.9377 45.8238L35.4177 45.431C35.77 45.3752 36.1008 45.6156 36.1566 45.9679L39.3651 66.2253C39.4209 66.5776 39.1805 66.9084 38.8283 66.9642L36.3482 67.357C35.9959 67.4128 35.6651 67.1724 35.6093 66.8202L32.4008 46.5627Z" fill="#B388FF"/>
</g>
<g filter="url(#filter8_d_26_88)">
<path d="M248.503 130.062C248.666 129.745 249.055 129.62 249.372 129.783L269.644 140.201C269.961 140.364 270.086 140.753 269.923 141.07L267.964 144.882C267.801 145.199 267.412 145.324 267.094 145.161L246.823 134.744C246.506 134.58 246.381 134.191 246.544 133.874L248.503 130.062Z" fill="#B388FF"/>
<path d="M242.678 149.715C240.631 153.7 235.74 155.27 231.755 153.222C227.77 151.174 226.2 146.284 228.248 142.299C230.296 138.314 235.186 136.744 239.171 138.792C243.156 140.84 244.726 145.73 242.678 149.715Z" fill="#B388FF"/>
<path d="M260.716 158.985C258.668 162.97 253.778 164.54 249.793 162.492C245.808 160.444 244.238 155.554 246.286 151.569C248.334 147.584 253.224 146.014 257.209 148.062C261.194 150.11 262.764 155 260.716 158.985Z" fill="#B388FF"/>
<path d="M248.503 130.062C248.666 129.745 249.055 129.62 249.372 129.783L251.606 130.931C251.923 131.094 252.048 131.483 251.885 131.8L242.51 150.042C242.347 150.36 241.958 150.485 241.641 150.322L239.407 149.174C239.09 149.011 238.965 148.621 239.128 148.304L248.503 130.062Z" fill="#B388FF"/>
<path d="M266.541 139.332C266.704 139.015 267.093 138.89 267.41 139.053L269.644 140.201C269.961 140.364 270.086 140.753 269.923 141.07L260.548 159.312C260.385 159.63 259.996 159.755 259.678 159.592L257.445 158.444C257.128 158.281 257.003 157.891 257.166 157.574L266.541 139.332Z" fill="#B388FF"/>
</g>
<defs>
<filter id="filter0_d_26_88" x="55.025" y="0.5" width="154.434" height="198.901" filterUnits="userSpaceOnUse" color-interpolation-filters="sRGB">
<feFlood flood-opacity="0" result="BackgroundImageFix"/>
<feColorMatrix in="SourceAlpha" type="matrix" values="0 0 0 0 0 0 0 0 0 0 0 0 0 0 0 0 0 0 127 0" result="hardAlpha"/>
<feOffset dx="4" dy="4"/>
<feGaussianBlur stdDeviation="4"/>
<feComposite in2="hardAlpha" operator="out"/>
<feColorMatrix type="matrix" values="0 0 0 0 0 0 0 0 0 0 0 0 0 0 0 0 0 0 0.25 0"/>
<feBlend mode="normal" in2="BackgroundImageFix" result="effect1_dropShadow_26_88"/>
<feBlend mode="normal" in="SourceGraphic" in2="effect1_dropShadow_26_88" result="shape"/>
</filter>
<filter id="filter1_d_26_88" x="65.5858" y="10.1008" width="154.434" height="198.901" filterUnits="userSpaceOnUse" color-interpolation-filters="sRGB">
<feFlood flood-opacity="0" result="BackgroundImageFix"/>
<feColorMatrix in="SourceAlpha" type="matrix" values="0 0 0 0 0 0 0 0 0 0 0 0 0 0 0 0 0 0 127 0" result="hardAlpha"/>
<feOffset dx="4" dy="4"/>
<feGaussianBlur stdDeviation="4"/>
<feComposite in2="hardAlpha" operator="out"/>
<feColorMatrix type="matrix" values="0 0 0 0 0 0 0 0 0 0 0 0 0 0 0 0 0 0 0.25 0"/>
<feBlend mode="normal" in2="BackgroundImageFix" result="effect1_dropShadow_26_88"/>
<feBlend mode="normal" in="SourceGraphic" in2="effect1_dropShadow_26_88" result="shape"/>
</filter>
<filter id="filter2_d_26_88" x="75.1198" y="19.8957" width="154.434" height="198.901" filterUnits="userSpaceOnUse" color-interpolation-filters="sRGB">
<feFlood flood-opacity="0" result="BackgroundImageFix"/>
<feColorMatrix in="SourceAlpha" type="matrix" values="0 0 0 0 0 0 0 0 0 0 0 0 0 0 0 0 0 0 127 0" result="hardAlpha"/>
<feOffset dx="4" dy="4"/>
<feGaussianBlur stdDeviation="4"/>
<feComposite in2="hardAlpha" operator="out"/>
<feColorMatrix type="matrix" values="0 0 0 0 0 0 0 0 0 0 0 0 0 0 0 0 0 0 0.25 0"/>
<feBlend mode="normal" in2="BackgroundImageFix" result="effect1_dropShadow_26_88"/>
<feBlend mode="normal" in="SourceGraphic" in2="effect1_dropShadow_26_88" result="shape"/>
</filter>
<filter id="filter3_i_26_88" x="182.612" y="151.643" width="70.6904" height="70.6904" filterUnits="userSpaceOnUse" color-interpolation-filters="sRGB">
<feFlood flood-opacity="0" result="BackgroundImageFix"/>
<feBlend mode="normal" in="SourceGraphic" in2="BackgroundImageFix" result="shape"/>
<feColorMatrix in="SourceAlpha" type="matrix" values="0 0 0 0 0 0 0 0 0 0 0 0 0 0 0 0 0 0 127 0" result="hardAlpha"/>
<feOffset dx="4" dy="4"/>
<feGaussianBlur stdDeviation="2"/>
<feComposite in2="hardAlpha" operator="arithmetic" k2="-1" k3="1"/>
<feColorMatrix type="matrix" values="0 0 0 0 0 0 0 0 0 0 0 0 0 0 0 0 0 0 0.25 0"/>
<feBlend mode="normal" in2="shape" result="effect1_innerShadow_26_88"/>
</filter>
<filter id="filter4_i_26_88" x="76.3" y="45.33" width="144.035" height="144.035" filterUnits="userSpaceOnUse" color-interpolation-filters="sRGB">
<feFlood flood-opacity="0" result="BackgroundImageFix"/>
<feBlend mode="normal" in="SourceGraphic" in2="BackgroundImageFix" result="shape"/>
<feColorMatrix in="SourceAlpha" type="matrix" values="0 0 0 0 0 0 0 0 0 0 0 0 0 0 0 0 0 0 127 0" result="hardAlpha"/>
<feOffset dx="4" dy="4"/>
<feGaussianBlur stdDeviation="2"/>
<feComposite in2="hardAlpha" operator="arithmetic" k2="-1" k3="1"/>
<feColorMatrix type="matrix" values="0 0 0 0 0 0 0 0 0 0 0 0 0 0 0 0 0 0 0.25 0"/>
<feBlend mode="normal" in2="shape" result="effect1_innerShadow_26_88"/>
</filter>
<filter id="filter5_d_26_88" x="230.188" y="46.3363" width="37.9945" height="34.385" filterUnits="userSpaceOnUse" color-interpolation-filters="sRGB">
<feFlood flood-opacity="0" result="BackgroundImageFix"/>
<feColorMatrix in="SourceAlpha" type="matrix" values="0 0 0 0 0 0 0 0 0 0 0 0 0 0 0 0 0 0 127 0" result="hardAlpha"/>
<feOffset dx="1" dy="1"/>
<feGaussianBlur stdDeviation="2"/>
<feComposite in2="hardAlpha" operator="out"/>
<feColorMatrix type="matrix" values="0 0 0 0 0 0 0 0 0 0 0 0 0 0 0 0 0 0 0.25 0"/>
<feBlend mode="normal" in2="BackgroundImageFix" result="effect1_dropShadow_26_88"/>
<feBlend mode="normal" in="SourceGraphic" in2="effect1_dropShadow_26_88" result="shape"/>
</filter>
<filter id="filter6_d_26_88" x="10.9531" y="127.47" width="28.916" height="39.7428" filterUnits="userSpaceOnUse" color-interpolation-filters="sRGB">
<feFlood flood-opacity="0" result="BackgroundImageFix"/>
<feColorMatrix in="SourceAlpha" type="matrix" values="0 0 0 0 0 0 0 0 0 0 0 0 0 0 0 0 0 0 127 0" result="hardAlpha"/>
<feOffset dx="1" dy="1"/>
<feGaussianBlur stdDeviation="2"/>
<feComposite in2="hardAlpha" operator="out"/>
<feColorMatrix type="matrix" values="0 0 0 0 0 0 0 0 0 0 0 0 0 0 0 0 0 0 0.25 0"/>
<feBlend mode="normal" in2="BackgroundImageFix" result="effect1_dropShadow_26_88"/>
<feBlend mode="normal" in="SourceGraphic" in2="effect1_dropShadow_26_88" result="shape"/>
</filter>
<filter id="filter7_d_26_88" x="0.150879" y="42.423" width="44.2577" height="40.9936" filterUnits="userSpaceOnUse" color-interpolation-filters="sRGB">
<feFlood flood-opacity="0" result="BackgroundImageFix"/>
<feColorMatrix in="SourceAlpha" type="matrix" values="0 0 0 0 0 0 0 0 0 0 0 0 0 0 0 0 0 0 127 0" result="hardAlpha"/>
<feOffset dx="1" dy="1"/>
<feGaussianBlur stdDeviation="2"/>
<feComposite in2="hardAlpha" operator="out"/>
<feColorMatrix type="matrix" values="0 0 0 0 0 0 0 0 0 0 0 0 0 0 0 0 0 0 0.25 0"/>
<feBlend mode="normal" in2="BackgroundImageFix" result="effect1_dropShadow_26_88"/>
<feBlend mode="normal" in="SourceGraphic" in2="effect1_dropShadow_26_88" result="shape"/>
</filter>
<filter id="filter8_d_26_88" x="224.349" y="126.712" width="50.6453" height="41.6793" filterUnits="userSpaceOnUse" color-interpolation-filters="sRGB">
<feFlood flood-opacity="0" result="BackgroundImageFix"/>
<feColorMatrix in="SourceAlpha" type="matrix" values="0 0 0 0 0 0 0 0 0 0 0 0 0 0 0 0 0 0 127 0" result="hardAlpha"/>
<feOffset dx="1" dy="1"/>
<feGaussianBlur stdDeviation="2"/>
<feComposite in2="hardAlpha" operator="out"/>
<feColorMatrix type="matrix" values="0 0 0 0 0 0 0 0 0 0 0 0 0 0 0 0 0 0 0.25 0"/>
<feBlend mode="normal" in2="BackgroundImageFix" result="effect1_dropShadow_26_88"/>
<feBlend mode="normal" in="SourceGraphic" in2="effect1_dropShadow_26_88" result="shape"/>
</filter>
</defs>
</svg>
